<svg xmlns="http://www.w3.org/2000/svg" width="277.174" height="141.977" viewBox="0 0 277.174 141.977">
  <g id="Capa_2" data-name="Capa 2" transform="translate(2.659 3.002)">
    <g id="Capa_1" data-name="Capa 1" transform="translate(-2.659 -3.002)">
      <path id="Trazado_1" data-name="Trazado 1" d="M304.125,81a29.394,29.394,0,0,0,10.936,6.934,46.3,46.3,0,0,0,27.97.466,37.261,37.261,0,0,0,9.429-4.457,11.546,11.546,0,0,0,5.519-10.014V10.677a16.228,16.228,0,0,0-.751-5.408,7.28,7.28,0,0,0-2.254-3.289A8.251,8.251,0,0,0,351.266.4a27.885,27.885,0,0,0-4.95-.4,34.364,34.364,0,0,0-5.659.466,33.316,33.316,0,0,0-4.022.867V22.95a19.014,19.014,0,0,0-3.9-1.134,25.881,25.881,0,0,0-4.9-.466,39.03,39.03,0,0,0-12.886,2.07,28.228,28.228,0,0,0-10.432,6.34,29.252,29.252,0,0,0-7,10.738,42.016,42.016,0,0,0-2.524,15.284,41.378,41.378,0,0,0,2.333,14.363A30.023,30.023,0,0,0,304.125,81Zm15.4-37.567a9.9,9.9,0,0,1,16.344,0q2.888,4.339,2.893,12.347T335.93,68.189a9.076,9.076,0,0,1-8.109,4.4,9.445,9.445,0,0,1-8.235-4.334q-2.953-4.339-2.953-12.476,0-8.009,2.888-12.347Z" transform="translate(-157.359 0.002)" fill="#fff"/>
      <path id="Trazado_2" data-name="Trazado 2" d="M139.525,91.926a30.792,30.792,0,0,0,6.728,10.9,29.389,29.389,0,0,0,10.372,6.874,36.1,36.1,0,0,0,13.451,2.4,38.007,38.007,0,0,0,13.451-2.268,28.393,28.393,0,0,0,10.372-6.671,30.156,30.156,0,0,0,6.723-10.9,42.407,42.407,0,0,0,2.389-14.744,40.234,40.234,0,0,0-2.389-14.145,30.9,30.9,0,0,0-6.723-10.9,30.238,30.238,0,0,0-10.372-6.934,35.249,35.249,0,0,0-13.451-2.476,36.1,36.1,0,0,0-13.451,2.442,29.389,29.389,0,0,0-10.372,6.874,30.833,30.833,0,0,0-6.728,10.9,40.636,40.636,0,0,0-2.389,14.279A41.034,41.034,0,0,0,139.525,91.926ZM161.92,65.181a9.863,9.863,0,0,1,16.325.015q2.888,4.339,2.893,12.347T178.31,89.949a9.069,9.069,0,0,1-8.109,4.4,9.438,9.438,0,0,1-8.235-4.334Q159,85.655,159,77.518q0-8.009,2.9-12.347Z" transform="translate(-73.152 -21.734)" fill="#fff"/>
      <path id="Sustracción_1" data-name="Sustracción 1" d="M33.029,69.049A40.591,40.591,0,0,1,22.18,67.568a.8.8,0,0,1-.552-.766,6.984,6.984,0,0,0-.153-1.316,5.53,5.53,0,0,0-2.506-3.575,5.1,5.1,0,0,0-2.662-.757h-.045a6.965,6.965,0,0,0-3.6,1.134.725.725,0,0,1-.827-.055,26.948,26.948,0,0,1-2.719-2.479A30.464,30.464,0,0,1,2.389,48.862,40.783,40.783,0,0,1,0,34.454,40.436,40.436,0,0,1,2.389,20.173,30.61,30.61,0,0,1,9.134,9.318,29.168,29.168,0,0,1,19.5,2.444,36.017,36.017,0,0,1,32.536,0l.428,0c.161,0,.322,0,.485,0A35.158,35.158,0,0,1,46.415,2.478,30.042,30.042,0,0,1,56.783,9.411a30.7,30.7,0,0,1,6.724,10.9,40.035,40.035,0,0,1,2.365,14.158,42.6,42.6,0,0,1-2.389,14.747,30.377,30.377,0,0,1-6.722,10.9,28.261,28.261,0,0,1-10.369,6.671A40.527,40.527,0,0,1,33.029,69.049ZM23.094,40.93a2.975,2.975,0,0,1,2.875,3.058V51.7c.005,2.855.658,4.749,1.936,5.631a10.216,10.216,0,0,0,5.722,1.324,31.486,31.486,0,0,0,3.83-.245,8.663,8.663,0,0,0,2.719-.639L40.2,43.892c-5.816,0-10.286-1.746-13.282-5.186a16.563,16.563,0,0,1-3.7-10.893H16.028c-.091,0-.18-.007-.27-.007a5.145,5.145,0,0,0-3.7,1.619c-.978,1.075-1.475,2.805-1.475,5.144a15.7,15.7,0,0,0,.413,3.524,10.234,10.234,0,0,0,1.064,2.839ZM32.5,10.384a20.874,20.874,0,0,0-3.729.339,25.806,25.806,0,0,0-2.8.635V27.812c0,.054-.339,5.448,3.3,9.251,2.454,2.565,6.125,3.867,10.906,3.867H49.96c.074,0,.153,0,.228,0a5,5,0,0,0,3.644-1.62h.023c.975-1.067,1.466-2.769,1.458-5.059a12.6,12.6,0,0,0-.51-3.575c-.347-1.184-.664-2.129-.971-2.889H43.058a2.985,2.985,0,0,1-2.881-3.063v-7.2c-.008-2.919-.679-4.86-2-5.77A9.98,9.98,0,0,0,32.5,10.384Z" transform="translate(211.298 21.331)" fill="#fff"/>
      <path id="Trazado_4" data-name="Trazado 4" d="M37,92.858A4.461,4.461,0,0,1,41,90.381a4.979,4.979,0,0,1,1.3.178.727.727,0,0,0,.642-.151.826.826,0,0,0,.291-.626V33.093h13.95a7.617,7.617,0,0,0,5.72-2.268q2.2-2.268,2.2-7.474a18.626,18.626,0,0,0-.718-5.339,18.122,18.122,0,0,0-1.633-4H7.931A7.6,7.6,0,0,0,2.2,16.278Q0,18.552,0,23.752a18.593,18.593,0,0,0,.756,5.339,17.585,17.585,0,0,0,1.633,4H21.247V84.869A17.162,17.162,0,0,0,22,90.476a7.221,7.221,0,0,0,2.263,3.333,8.7,8.7,0,0,0,3.732,1.669,24.629,24.629,0,0,0,5.09.471c.644,0,1.283,0,1.932-.049l.719-.064a.8.8,0,0,0,.658-.763A5.388,5.388,0,0,1,37,92.858Z" transform="translate(0 -7.07)" fill="#fff"/>
      <path id="Trazado_6" data-name="Trazado 6" d="M89.227,175.975s27.452,30.241,91.87,30.241c0,0,57.293-.2,87.839-30.241,0,0,2.939-3.422,5.081-2.125s.378,5.275-.994,7.464-26.221,48.26-91.912,48.26-90.709-42.827-94.147-48.3c0,0-2.636-4.458-1.717-6.146S88.6,175.332,89.227,175.975Z" transform="translate(-45.37 -87.597)" fill="#ffd400"/>
    </g>
  </g>
</svg>
