<svg xmlns="http://www.w3.org/2000/svg" viewBox="0 0 35.38 35.36"><defs><style>.cls-1{fill:#00d95f;}.cls-2,.cls-3{fill:#fff;}.cls-3{fill-rule:evenodd;}</style></defs><g id="ELEMENTS"><circle class="cls-1" cx="17.69" cy="17.68" r="17.69" transform="translate(-2.57 32.34) rotate(-80.87)"/><path class="cls-2" d="M8.13,27.69l1.48-5.5a10.16,10.16,0,1,1,4.05,4Zm5.81-3.54.35.21a8.31,8.31,0,1,0-2.83-2.81l.21.35L10.85,25Z"/><path class="cls-3" d="M22.27,18.69a1.66,1.66,0,0,0-1.45-.32c-.38.15-.62.74-.86,1a.37.37,0,0,1-.47.11A6.63,6.63,0,0,1,16.2,16.7a.4.4,0,0,1,.05-.55,2.4,2.4,0,0,0,.6-1A2.2,2.2,0,0,0,16.58,14a2.71,2.71,0,0,0-.85-1.28,1.16,1.16,0,0,0-1.26.19,2.53,2.53,0,0,0-.89,2,2.8,2.8,0,0,0,.08.64A5.15,5.15,0,0,0,14.28,17c.2.34.41.67.64,1a10,10,0,0,0,2.8,2.59,8.17,8.17,0,0,0,1.74.83,3.86,3.86,0,0,0,2,.32,2.44,2.44,0,0,0,1.85-1.37,1.2,1.2,0,0,0,.08-.7C23.32,19.21,22.66,18.93,22.27,18.69Z"/></g></svg>